<?xml version="1.0" encoding="UTF-8" standalone="no"?>
<!DOCTYPE svg PUBLIC "-//W3C//DTD SVG 1.1//EN"
 "http://www.w3.org/Graphics/SVG/1.1/DTD/svg11.dtd">
<!-- Generated by graphviz version 4.0.0 (0)
 -->
<!-- Title: ARQ Pages: 1 -->
<svg width="443pt" height="218pt"
 viewBox="0.00 0.00 443.44 218.00" xmlns="http://www.w3.org/2000/svg" xmlns:xlink="http://www.w3.org/1999/xlink">
<g id="graph0" class="graph" transform="scale(1 1) rotate(0) translate(4 214)">
<title>ARQ</title>
<polygon fill="white" stroke="transparent" points="-4,4 -4,-214 439.44,-214 439.44,4 -4,4"/>
<!-- Ready sn -->
<g id="node1" class="node">
<title>Ready sn</title>
<ellipse fill="none" stroke="black" cx="148.44" cy="-192" rx="53.09" ry="18"/>
<text text-anchor="middle" x="148.44" y="-188.3" font-family="Times,serif" font-size="14.00">Ready sn</text>
</g>
<!-- Idle sn -->
<g id="node2" class="node">
<title>Idle sn</title>
<ellipse fill="none" stroke="black" cx="148.44" cy="-105" rx="42.49" ry="18"/>
<text text-anchor="middle" x="148.44" y="-101.3" font-family="Times,serif" font-size="14.00">Idle sn</text>
</g>
<!-- Ready sn&#45;&gt;Idle sn -->
<g id="edge1" class="edge">
<title>Ready sn&#45;&gt;Idle sn</title>
<path fill="none" stroke="black" d="M98.65,-185.25C62.45,-179.92 17.87,-170.59 6.44,-156 -19.95,-122.32 45.49,-111.27 96.1,-107.68"/>
<polygon fill="black" stroke="black" points="96.55,-111.15 106.31,-107.04 96.11,-104.17 96.55,-111.15"/>
<text text-anchor="middle" x="66.44" y="-144.8" font-family="Times,serif" font-size="14.00">Send:(SeqNo sn)</text>
</g>
<!-- Idle sn&#45;&gt;Ready sn -->
<g id="edge2" class="edge">
<title>Idle sn&#45;&gt;Ready sn</title>
<path fill="none" stroke="black" d="M148.44,-123.18C148.44,-134.81 148.44,-150.42 148.44,-163.73"/>
<polygon fill="black" stroke="black" points="144.94,-163.8 148.44,-173.8 151.94,-163.8 144.94,-163.8"/>
<text text-anchor="middle" x="202.94" y="-144.8" font-family="Times,serif" font-size="14.00">Wait?(Timeout)</text>
</g>
<!-- Acked sn -->
<g id="node3" class="node">
<title>Acked sn</title>
<ellipse fill="none" stroke="black" cx="210.44" cy="-18" rx="51.99" ry="18"/>
<text text-anchor="middle" x="210.44" y="-14.3" font-family="Times,serif" font-size="14.00">Acked sn</text>
</g>
<!-- Idle sn&#45;&gt;Acked sn -->
<g id="edge3" class="edge">
<title>Idle sn&#45;&gt;Acked sn</title>
<path fill="none" stroke="black" d="M149.98,-86.57C151.58,-76.35 154.83,-63.61 161.44,-54 165.13,-48.63 169.93,-43.8 175.08,-39.56"/>
<polygon fill="black" stroke="black" points="177.42,-42.19 183.35,-33.41 173.24,-36.57 177.42,-42.19"/>
<text text-anchor="middle" x="209.94" y="-57.8" font-family="Times,serif" font-size="14.00">Wait?(Ack sn)</text>
</g>
<!-- Acked sn&#45;&gt;Ready sn -->
<g id="edge4" class="edge">
<title>Acked sn&#45;&gt;Ready sn</title>
<path fill="none" stroke="black" d="M238.75,-33.1C246.57,-38.49 254.09,-45.45 258.44,-54 278.98,-94.41 285.2,-119.41 258.44,-156 247.06,-171.56 228.69,-180.37 210.2,-185.31"/>
<polygon fill="black" stroke="black" points="209.22,-181.94 200.26,-187.61 210.79,-188.76 209.22,-181.94"/>
<text text-anchor="middle" x="355.44" y="-101.3" font-family="Times,serif" font-size="14.00">Next!(SeqNo (sn + 1))</text>
</g>
</g>
</svg>
