<?xml version="1.0" encoding="UTF-8" standalone="no"?>
<!DOCTYPE svg PUBLIC "-//W3C//DTD SVG 1.1//EN"
 "http://www.w3.org/Graphics/SVG/1.1/DTD/svg11.dtd">
<!-- Generated by graphviz version 4.0.0 (0)
 -->
<!-- Title: ATM Pages: 1 -->
<svg width="518pt" height="218pt"
 viewBox="0.00 0.00 518.14 218.00" xmlns="http://www.w3.org/2000/svg" xmlns:xlink="http://www.w3.org/1999/xlink">
<g id="graph0" class="graph" transform="scale(1 1) rotate(0) translate(4 214)">
<title>ATM</title>
<polygon fill="white" stroke="transparent" points="-4,4 -4,-214 514.14,-214 514.14,4 -4,4"/>
<!-- Ready -->
<g id="node1" class="node">
<title>Ready</title>
<ellipse fill="none" stroke="black" cx="173.14" cy="-192" rx="39.79" ry="18"/>
<text text-anchor="middle" x="173.14" y="-188.3" font-family="Times,serif" font-size="14.00">Ready</text>
</g>
<!-- CardInserted -->
<g id="node2" class="node">
<title>CardInserted</title>
<ellipse fill="none" stroke="black" cx="72.14" cy="-105" rx="72.29" ry="18"/>
<text text-anchor="middle" x="72.14" y="-101.3" font-family="Times,serif" font-size="14.00">CardInserted</text>
</g>
<!-- Ready&#45;&gt;CardInserted -->
<g id="edge1" class="edge">
<title>Ready&#45;&gt;CardInserted</title>
<path fill="none" stroke="black" d="M134.26,-187.94C112.55,-184.02 87.12,-175.29 73.14,-156 68.47,-149.55 67.02,-141.29 67.08,-133.36"/>
<polygon fill="black" stroke="black" points="70.57,-133.54 67.89,-123.3 63.6,-132.98 70.57,-133.54"/>
<text text-anchor="middle" x="112.14" y="-144.8" font-family="Times,serif" font-size="14.00">InsertCard</text>
</g>
<!-- CardInserted&#45;&gt;Ready -->
<g id="edge2" class="edge">
<title>CardInserted&#45;&gt;Ready</title>
<path fill="none" stroke="black" d="M117.1,-119.18C129.29,-124.44 141.72,-131.55 151.14,-141 157.59,-147.47 162.3,-156.14 165.67,-164.46"/>
<polygon fill="black" stroke="black" points="162.38,-165.64 169.03,-173.89 168.97,-163.29 162.38,-165.64"/>
<text text-anchor="middle" x="197.14" y="-144.8" font-family="Times,serif" font-size="14.00">EjectCard</text>
</g>
<!-- CardInserted&#45;&gt;CardInserted -->
<g id="edge3" class="edge">
<title>CardInserted&#45;&gt;CardInserted</title>
<path fill="none" stroke="black" d="M137.78,-112.64C151.98,-111.9 162.29,-109.35 162.29,-105 162.29,-101.77 156.61,-99.54 147.88,-98.29"/>
<polygon fill="black" stroke="black" points="148.06,-94.8 137.78,-97.36 147.41,-101.77 148.06,-94.8"/>
<text text-anchor="middle" x="291.79" y="-101.3" font-family="Times,serif" font-size="14.00">GetPIN!(PIN); CheckPIN?(Incorrect)</text>
</g>
<!-- Session -->
<g id="node3" class="node">
<title>Session</title>
<ellipse fill="none" stroke="black" cx="265.14" cy="-18" rx="46.29" ry="18"/>
<text text-anchor="middle" x="265.14" y="-14.3" font-family="Times,serif" font-size="14.00">Session</text>
</g>
<!-- CardInserted&#45;&gt;Session -->
<g id="edge4" class="edge">
<title>CardInserted&#45;&gt;Session</title>
<path fill="none" stroke="black" d="M106.2,-89C139.84,-74.19 191.2,-51.57 226.38,-36.07"/>
<polygon fill="black" stroke="black" points="228.1,-39.14 235.84,-31.91 225.28,-32.73 228.1,-39.14"/>
<text text-anchor="middle" x="251.64" y="-57.8" font-family="Times,serif" font-size="14.00">CheckPIN?(Correct)</text>
</g>
<!-- Session&#45;&gt;Ready -->
<g id="edge6" class="edge">
<title>Session&#45;&gt;Ready</title>
<path fill="none" stroke="black" d="M305,-27.11C365.17,-41.15 468.36,-73.36 430.14,-123 404.8,-155.92 288.03,-176.16 220.94,-185.28"/>
<polygon fill="black" stroke="black" points="220.47,-181.81 211.02,-186.6 221.39,-188.75 220.47,-181.81"/>
<text text-anchor="middle" x="474.14" y="-101.3" font-family="Times,serif" font-size="14.00">EjectCard</text>
</g>
<!-- Session&#45;&gt;Session -->
<g id="edge5" class="edge">
<title>Session&#45;&gt;Session</title>
<path fill="none" stroke="black" d="M306.79,-25.86C319.42,-25.67 329.29,-23.04 329.29,-18 329.29,-14.45 324.41,-12.1 317.12,-10.95"/>
<polygon fill="black" stroke="black" points="317.03,-7.44 306.79,-10.14 316.48,-14.41 317.03,-7.44"/>
<text text-anchor="middle" x="362.29" y="-14.3" font-family="Times,serif" font-size="14.00">Dispense</text>
</g>
</g>
</svg>
