<?xml version="1.0" encoding="UTF-8" standalone="no"?>
<!DOCTYPE svg PUBLIC "-//W3C//DTD SVG 1.1//EN"
 "http://www.w3.org/Graphics/SVG/1.1/DTD/svg11.dtd">
<!-- Generated by graphviz version 4.0.0 (0)
 -->
<!-- Title: MESI Pages: 1 -->
<svg width="659pt" height="305pt"
 viewBox="0.00 0.00 659.10 305.00" xmlns="http://www.w3.org/2000/svg" xmlns:xlink="http://www.w3.org/1999/xlink">
<g id="graph0" class="graph" transform="scale(1 1) rotate(0) translate(4 301)">
<title>MESI</title>
<polygon fill="white" stroke="transparent" points="-4,4 -4,-301 655.1,-301 655.1,4 -4,4"/>
<!-- M -->
<g id="node1" class="node">
<title>M</title>
<ellipse fill="none" stroke="black" cx="407.1" cy="-279" rx="27" ry="18"/>
<text text-anchor="middle" x="407.1" y="-275.3" font-family="Times,serif" font-size="14.00">M</text>
</g>
<!-- M&#45;&gt;M -->
<g id="edge6" class="edge">
<title>M&#45;&gt;M</title>
<path fill="none" stroke="black" d="M431.63,-286.75C442.61,-287.49 452.1,-284.91 452.1,-279 452.1,-275.03 447.81,-272.56 441.67,-271.59"/>
<polygon fill="black" stroke="black" points="441.75,-268.09 431.63,-271.25 441.51,-275.09 441.75,-268.09"/>
<text text-anchor="middle" x="500.1" y="-275.3" font-family="Times,serif" font-size="14.00">PrRd_; PrWr_</text>
</g>
<!-- I -->
<g id="node2" class="node">
<title>I</title>
<ellipse fill="none" stroke="black" cx="158.1" cy="-192" rx="27" ry="18"/>
<text text-anchor="middle" x="158.1" y="-188.3" font-family="Times,serif" font-size="14.00">I</text>
</g>
<!-- M&#45;&gt;I -->
<g id="edge1" class="edge">
<title>M&#45;&gt;I</title>
<path fill="none" stroke="black" d="M381.69,-272.63C357.46,-267 320.3,-257.01 290.1,-243 279.03,-237.86 278.12,-233.25 267.1,-228 243.24,-216.64 214.77,-207.64 192.91,-201.61"/>
<polygon fill="black" stroke="black" points="193.63,-198.18 183.06,-198.98 191.81,-204.94 193.63,-198.18"/>
<text text-anchor="middle" x="341.6" y="-231.8" font-family="Times,serif" font-size="14.00">BusRdX_Flush</text>
</g>
<!-- S -->
<g id="node3" class="node">
<title>S</title>
<ellipse fill="none" stroke="black" cx="289.1" cy="-18" rx="27" ry="18"/>
<text text-anchor="middle" x="289.1" y="-14.3" font-family="Times,serif" font-size="14.00">S</text>
</g>
<!-- M&#45;&gt;S -->
<g id="edge2" class="edge">
<title>M&#45;&gt;S</title>
<path fill="none" stroke="black" d="M421.95,-263.68C434.05,-250.9 450.2,-231.02 457.1,-210 462.09,-194.8 462.47,-189.07 457.1,-174 433.27,-107.1 360.65,-57.99 319.11,-34.49"/>
<polygon fill="black" stroke="black" points="320.7,-31.36 310.25,-29.6 317.31,-37.49 320.7,-31.36"/>
<text text-anchor="middle" x="495.1" y="-144.8" font-family="Times,serif" font-size="14.00">BusRd_Flush</text>
</g>
<!-- I&#45;&gt;M -->
<g id="edge13" class="edge">
<title>I&#45;&gt;M</title>
<path fill="none" stroke="black" d="M148.1,-209.19C142.85,-219.96 139.03,-233.77 147.1,-243 175.57,-275.56 304.9,-279.07 369.77,-278.72"/>
<polygon fill="black" stroke="black" points="370.01,-282.21 379.98,-278.62 369.94,-275.21 370.01,-282.21"/>
<text text-anchor="middle" x="205.1" y="-231.8" font-family="Times,serif" font-size="14.00">ProcWr_BusRdX</text>
</g>
<!-- I&#45;&gt;S -->
<g id="edge11" class="edge">
<title>I&#45;&gt;S</title>
<path fill="none" stroke="black" d="M151.85,-174.39C144.75,-152.53 136.22,-113.75 153.1,-87 175.09,-52.15 220.83,-34.52 253.18,-26.06"/>
<polygon fill="black" stroke="black" points="254.28,-29.4 263.17,-23.63 252.62,-22.6 254.28,-29.4"/>
<text text-anchor="middle" x="203.1" y="-101.3" font-family="Times,serif" font-size="14.00">PrRd_BusRdS</text>
</g>
<!-- E -->
<g id="node4" class="node">
<title>E</title>
<ellipse fill="none" stroke="black" cx="289.1" cy="-105" rx="27" ry="18"/>
<text text-anchor="middle" x="289.1" y="-101.3" font-family="Times,serif" font-size="14.00">E</text>
</g>
<!-- I&#45;&gt;E -->
<g id="edge12" class="edge">
<title>I&#45;&gt;E</title>
<path fill="none" stroke="black" d="M155.2,-173.77C154.42,-163.11 155.43,-149.82 163.1,-141 185.31,-115.46 204.54,-132.27 237.1,-123 243.27,-121.24 249.81,-119.23 256.09,-117.21"/>
<polygon fill="black" stroke="black" points="257.24,-120.52 265.66,-114.09 255.07,-113.87 257.24,-120.52"/>
<text text-anchor="middle" x="213.1" y="-144.8" font-family="Times,serif" font-size="14.00">PrRd_BusRdS</text>
</g>
<!-- S&#45;&gt;M -->
<g id="edge9" class="edge">
<title>S&#45;&gt;M</title>
<path fill="none" stroke="black" d="M315.66,-22.24C370.47,-30.52 495.24,-58.05 546.1,-141 579.21,-195 489.83,-243.19 439.21,-265.26"/>
<polygon fill="black" stroke="black" points="437.78,-262.07 429.95,-269.2 440.52,-268.51 437.78,-262.07"/>
<text text-anchor="middle" x="601.1" y="-144.8" font-family="Times,serif" font-size="14.00">PrWr_BusRdX</text>
</g>
<!-- S&#45;&gt;I -->
<g id="edge5" class="edge">
<title>S&#45;&gt;I</title>
<path fill="none" stroke="black" d="M262.35,-21.24C198.19,-27.24 38.64,-46.06 8.1,-87 -27.22,-134.35 68.42,-167.88 123.03,-182.62"/>
<polygon fill="black" stroke="black" points="122.15,-186 132.71,-185.15 123.92,-179.23 122.15,-186"/>
<text text-anchor="middle" x="59.6" y="-101.3" font-family="Times,serif" font-size="14.00">BusRdX_Flush</text>
</g>
<!-- S&#45;&gt;S -->
<g id="edge10" class="edge">
<title>S&#45;&gt;S</title>
<path fill="none" stroke="black" d="M313.63,-25.75C324.61,-26.49 334.1,-23.91 334.1,-18 334.1,-14.03 329.81,-11.56 323.67,-10.59"/>
<polygon fill="black" stroke="black" points="323.75,-7.09 313.63,-10.25 323.51,-14.09 323.75,-7.09"/>
<text text-anchor="middle" x="355.6" y="-14.3" font-family="Times,serif" font-size="14.00">PrRd_</text>
</g>
<!-- E&#45;&gt;M -->
<g id="edge7" class="edge">
<title>E&#45;&gt;M</title>
<path fill="none" stroke="black" d="M315.82,-108.59C337.55,-112.17 367.28,-120.7 384.1,-141 409.59,-171.76 411.73,-220.08 410.05,-250.35"/>
<polygon fill="black" stroke="black" points="406.54,-250.39 409.3,-260.62 413.52,-250.9 406.54,-250.39"/>
<text text-anchor="middle" x="431.1" y="-188.3" font-family="Times,serif" font-size="14.00">PrWr_</text>
</g>
<!-- E&#45;&gt;I -->
<g id="edge3" class="edge">
<title>E&#45;&gt;I</title>
<path fill="none" stroke="black" d="M285.45,-122.97C282.29,-133.79 276.68,-147.37 267.1,-156 247.25,-173.88 218.2,-182.64 195.08,-186.92"/>
<polygon fill="black" stroke="black" points="194.23,-183.51 184.93,-188.59 195.36,-190.42 194.23,-183.51"/>
<text text-anchor="middle" x="328.6" y="-144.8" font-family="Times,serif" font-size="14.00">BusRdX_Flush</text>
</g>
<!-- E&#45;&gt;S -->
<g id="edge4" class="edge">
<title>E&#45;&gt;S</title>
<path fill="none" stroke="black" d="M289.1,-86.8C289.1,-75.16 289.1,-59.55 289.1,-46.24"/>
<polygon fill="black" stroke="black" points="292.6,-46.18 289.1,-36.18 285.6,-46.18 292.6,-46.18"/>
<text text-anchor="middle" x="316.1" y="-57.8" font-family="Times,serif" font-size="14.00">BusRd_</text>
</g>
<!-- E&#45;&gt;E -->
<g id="edge8" class="edge">
<title>E&#45;&gt;E</title>
<path fill="none" stroke="black" d="M313.63,-112.75C324.61,-113.49 334.1,-110.91 334.1,-105 334.1,-101.03 329.81,-98.56 323.67,-97.59"/>
<polygon fill="black" stroke="black" points="323.75,-94.09 313.63,-97.25 323.51,-101.09 323.75,-94.09"/>
<text text-anchor="middle" x="355.6" y="-101.3" font-family="Times,serif" font-size="14.00">PrRd_</text>
</g>
</g>
</svg>
