<?xml version="1.0" encoding="UTF-8" standalone="no"?>
<!DOCTYPE svg PUBLIC "-//W3C//DTD SVG 1.1//EN"
 "http://www.w3.org/Graphics/SVG/1.1/DTD/svg11.dtd">
<!-- Generated by graphviz version 11.0.0 (0)
 -->
<!-- Title: ARQ Pages: 1 -->
<svg width="586pt" height="223pt"
 viewBox="0.00 0.00 586.08 222.50" xmlns="http://www.w3.org/2000/svg" xmlns:xlink="http://www.w3.org/1999/xlink">
<g id="graph0" class="graph" transform="scale(1 1) rotate(0) translate(4 218.5)">
<title>ARQ</title>
<polygon fill="white" stroke="none" points="-4,4 -4,-218.5 582.08,-218.5 582.08,4 -4,4"/>
<!-- Ready sn -->
<g id="node1" class="node">
<title>Ready sn</title>
<ellipse fill="none" stroke="black" cx="164.08" cy="-196.5" rx="57" ry="18"/>
<text text-anchor="middle" x="164.08" y="-191.82" font-family="Times,serif" font-size="14.00">Ready sn</text>
</g>
<!-- Waiting sn -->
<g id="node2" class="node">
<title>Waiting sn</title>
<ellipse fill="none" stroke="black" cx="102.08" cy="-107.25" rx="64.36" ry="18"/>
<text text-anchor="middle" x="102.08" y="-102.58" font-family="Times,serif" font-size="14.00">Waiting sn</text>
</g>
<!-- Ready sn&#45;&gt;Waiting sn -->
<g id="edge1" class="edge">
<title>Ready sn&#45;&gt;Waiting sn</title>
<path fill="none" stroke="black" d="M109.64,-190.72C68.93,-185.89 18.14,-176.75 5.08,-160.5 -9.63,-142.21 12.05,-129.44 38.61,-121.12"/>
<polygon fill="black" stroke="black" points="39.27,-124.57 47.92,-118.45 37.34,-117.84 39.27,-124.57"/>
<text text-anchor="middle" x="42.58" y="-147.2" font-family="Times,serif" font-size="14.00">Send:(Pkt)</text>
</g>
<!-- Waiting sn&#45;&gt;Ready sn -->
<g id="edge3" class="edge">
<title>Waiting sn&#45;&gt;Ready sn</title>
<path fill="none" stroke="black" d="M98.43,-125.42C97.07,-136.22 97.12,-150.05 103.33,-160.5 107,-166.68 112.21,-171.87 118.06,-176.2"/>
<polygon fill="black" stroke="black" points="116.04,-179.07 126.36,-181.5 119.81,-173.17 116.04,-179.07"/>
<text text-anchor="middle" x="157.45" y="-147.2" font-family="Times,serif" font-size="14.00">Wait?(Timeout)</text>
</g>
<!-- Acked sn an -->
<g id="node3" class="node">
<title>Acked sn an</title>
<ellipse fill="none" stroke="black" cx="226.08" cy="-18" rx="71.2" ry="18"/>
<text text-anchor="middle" x="226.08" y="-13.32" font-family="Times,serif" font-size="14.00">Acked sn an</text>
</g>
<!-- Waiting sn&#45;&gt;Acked sn an -->
<g id="edge2" class="edge">
<title>Waiting sn&#45;&gt;Acked sn an</title>
<path fill="none" stroke="black" d="M102,-89.18C102.85,-77.86 105.8,-63.41 114.58,-54 124.78,-43.06 138.35,-35.53 152.51,-30.33"/>
<polygon fill="black" stroke="black" points="153.52,-33.68 161.96,-27.27 151.37,-27.02 153.52,-33.68"/>
<text text-anchor="middle" x="162.83" y="-57.95" font-family="Times,serif" font-size="14.00">Wait?(Ack an)</text>
</g>
<!-- Acked sn an&#45;&gt;Ready sn -->
<g id="edge4" class="edge">
<title>Acked sn an&#45;&gt;Ready sn</title>
<path fill="none" stroke="black" d="M228.68,-36.47C231.97,-64.62 234.76,-120.86 212.08,-160.5 209.34,-165.28 205.66,-169.6 201.54,-173.42"/>
<polygon fill="black" stroke="black" points="199.4,-170.65 193.82,-179.65 203.8,-176.1 199.4,-170.65"/>
<text text-anchor="middle" x="308.45" y="-102.58" font-family="Times,serif" font-size="14.00">Proceed:(Equal an sn)</text>
</g>
<!-- Acked sn an&#45;&gt;Ready sn -->
<g id="edge5" class="edge">
<title>Acked sn an&#45;&gt;Ready sn</title>
<path fill="none" stroke="black" d="M278.68,-30.51C339.17,-46.24 425.91,-78.01 391.08,-125.25 355.04,-174.13 285.4,-190.02 232.71,-194.7"/>
<polygon fill="black" stroke="black" points="232.62,-191.2 222.91,-195.45 233.15,-198.18 232.62,-191.2"/>
<text text-anchor="middle" x="488.08" y="-102.58" font-family="Times,serif" font-size="14.00">Retry:(Not (Equal an sn))</text>
</g>
</g>
</svg>
